<svg width="36" height="38" viewBox="0 0 36 38" fill="none" xmlns="http://www.w3.org/2000/svg">
<g filter="url(#filter0_d_0_389)">
<path fill-rule="evenodd" clip-rule="evenodd" d="M13.409 25.1231C12.7592 24.7304 11.7968 23.7905 10.3253 22.763C9.4919 22.1822 7.59987 21.2092 6.92059 20.6097C6.32666 20.0774 6.25299 19.7668 6.13025 19.1876C5.91145 18.1573 6.62786 17.0235 7.73349 16.7269C8.56826 16.5015 9.45109 16.7788 10.2545 17.0521C10.7391 17.2162 11.416 17.6342 11.8153 17.8638C12.1824 18.0736 12.2916 18.1762 12.6967 18.4356C13.2324 18.7789 13.4326 18.9732 13.0995 18.4992C12.701 17.7699 12.0288 16.5214 11.3326 15.4554C10.8038 14.6474 10.7039 14.5271 10.2611 13.9206C9.79114 13.2747 9.4998 12.8082 9.02599 12.1141C8.69332 11.6223 8.04568 10.6054 7.74961 10.0078C7.34328 9.19112 6.77847 7.82278 7.08558 6.98191C7.32632 6.32346 8.25026 5.80619 8.97273 5.88664C9.91862 5.99157 10.8029 6.97836 11.1821 7.3625C11.8636 8.05325 12.452 8.92582 13.123 10.1093C13.9767 11.6157 15.2772 13.6634 15.4676 14.1252C15.2905 13.538 14.6962 12.3843 14.59 11.7972C14.4936 11.2648 14.6964 10.5285 15.1628 10.1752C15.5577 9.877 16.0602 9.63422 16.5539 9.55761C17.0773 9.4752 17.7201 9.63149 18.0338 9.88783C18.9587 10.6469 19.7103 12.6237 19.6941 12.5093C19.6093 11.8752 19.0904 10.5587 19.2151 9.88349C19.2966 9.43862 19.7287 8.90342 20.0041 8.74022C20.4306 8.48864 20.9822 8.25406 21.4971 8.16776C21.9124 8.09923 22.6079 8.36331 22.8318 8.53104C23.3703 8.93882 24.1282 10.3784 24.3838 10.8867C24.489 11.097 24.271 10.2347 24.4114 9.57303C24.6709 8.34444 26.8313 7.31698 27.7313 9.46312C28.15 10.4646 28.1248 10.4209 28.3805 11.1045C28.6808 11.9077 28.8428 12.3978 29.0166 12.9951C29.2008 13.6345 29.5924 15.0889 29.6527 15.842C29.6939 16.3596 29.6445 17.5769 29.4438 18.3709C29.4438 18.3709 28.5014 20.9368 28.6467 21.8794C28.7899 22.821 28.8528 22.8046 29.0489 23.4378C29.2444 24.0695 29.7725 24.7999 29.7725 24.7999C29.7725 24.7999 28.587 25.4274 27.8757 25.5712C27.2317 25.7004 26.0278 24.773 25.6953 24.4758C25.2376 24.0662 24.704 24.3773 24.6225 24.8363C24.4954 25.562 24.1426 26.9105 23.6363 27.176C22.6473 27.6946 20.4633 28.4174 18.7713 29.0306C18.7713 29.0306 18.4713 27.3525 17.6297 27.0528C17.0054 26.8276 15.8848 26.317 15.2366 26.0706L13.409 25.1231Z" fill="white"/>
<path fill-rule="evenodd" clip-rule="evenodd" d="M13.409 25.1231C12.7592 24.7304 11.7968 23.7905 10.3253 22.763C9.4919 22.1822 7.59987 21.2092 6.92059 20.6097C6.32666 20.0774 6.25299 19.7668 6.13025 19.1876C5.91145 18.1573 6.62786 17.0235 7.73349 16.7269C8.56826 16.5015 9.45109 16.7788 10.2545 17.0521C10.7391 17.2162 11.416 17.6342 11.8153 17.8638C12.1824 18.0736 12.2916 18.1762 12.6967 18.4356C13.2324 18.7789 13.4326 18.9732 13.0995 18.4992C12.701 17.7699 12.0288 16.5214 11.3326 15.4554C10.8038 14.6474 10.7039 14.5271 10.2611 13.9206C9.79114 13.2747 9.4998 12.8082 9.02599 12.1141C8.69332 11.6223 8.04568 10.6054 7.74961 10.0078C7.34328 9.19112 6.77847 7.82278 7.08558 6.98191C7.32632 6.32346 8.25026 5.80619 8.97273 5.88664C9.91862 5.99157 10.8029 6.97836 11.1821 7.3625C11.8636 8.05325 12.452 8.92582 13.123 10.1093C13.9767 11.6157 15.2772 13.6634 15.4676 14.1252C15.2905 13.538 14.6962 12.3843 14.59 11.7972C14.4936 11.2648 14.6964 10.5285 15.1628 10.1752C15.5577 9.877 16.0602 9.63422 16.5539 9.55761C17.0773 9.4752 17.7201 9.63149 18.0338 9.88783C18.9587 10.6469 19.7103 12.6237 19.6941 12.5093C19.6093 11.8752 19.0904 10.5587 19.2151 9.88349C19.2966 9.43862 19.7287 8.90342 20.0041 8.74022C20.4306 8.48864 20.9822 8.25406 21.4971 8.16776C21.9124 8.09923 22.6079 8.36331 22.8318 8.53104C23.3703 8.93882 24.1282 10.3784 24.3838 10.8867C24.489 11.097 24.271 10.2347 24.4114 9.57303C24.6709 8.34444 26.8313 7.31698 27.7313 9.46312C28.15 10.4646 28.1248 10.4209 28.3805 11.1045C28.6808 11.9077 28.8428 12.3978 29.0166 12.9951C29.2008 13.6345 29.5924 15.0889 29.6527 15.842C29.6939 16.3596 29.6445 17.5769 29.4438 18.3709C29.4438 18.3709 28.5014 20.9368 28.6467 21.8794C28.7899 22.821 28.8528 22.8046 29.0489 23.4378C29.2444 24.0695 29.7725 24.7999 29.7725 24.7999C29.7725 24.7999 28.587 25.4274 27.8757 25.5712C27.2317 25.7004 26.0278 24.773 25.6953 24.4758C25.2376 24.0662 24.704 24.3773 24.6225 24.8363C24.4954 25.562 24.1426 26.9105 23.6363 27.176C22.6473 27.6946 20.4633 28.4174 18.7713 29.0306C18.7713 29.0306 18.4713 27.3525 17.6297 27.0528C17.0054 26.8276 15.8848 26.317 15.2366 26.0706L13.409 25.1231V25.1231Z" stroke="black" stroke-width="1.24397" stroke-linecap="round" stroke-linejoin="round"/>
<path d="M26.4084 20.8898L24.3989 15.516" stroke="black" stroke-width="1.24397" stroke-linecap="round"/>
<path d="M23.2836 22.0789L21.2412 16.6927" stroke="black" stroke-width="1.24397" stroke-linecap="round"/>
<path d="M18.1832 17.8924L20.2062 23.2026" stroke="black" stroke-width="1.24397" stroke-linecap="round"/>
</g>
<defs>
<filter id="filter0_d_0_389" x="0.492555" y="3.59773" width="34.8778" height="34.348" filterUnits="userSpaceOnUse" color-interpolation-filters="sRGB">
<feFlood flood-opacity="0" result="BackgroundImageFix"/>
<feColorMatrix in="SourceAlpha" type="matrix" values="0 0 0 0 0 0 0 0 0 0 0 0 0 0 0 0 0 0 127 0" result="hardAlpha"/>
<feOffset dy="3.31725"/>
<feGaussianBlur stdDeviation="2.48794"/>
<feColorMatrix type="matrix" values="0 0 0 0 0 0 0 0 0 0 0 0 0 0 0 0 0 0 0.402655 0"/>
<feBlend mode="normal" in2="BackgroundImageFix" result="effect1_dropShadow_0_389"/>
<feBlend mode="normal" in="SourceGraphic" in2="effect1_dropShadow_0_389" result="shape"/>
</filter>
</defs>
</svg>
